<?xml version="1.0" encoding="UTF-8"?>
<svg id="uuid-93488cbc-fedf-4448-900c-1d0d857f841d" data-name="Layer_2" xmlns="http://www.w3.org/2000/svg" width="100" height="100" viewBox="0 0 100 100">
  <defs>
    <style>
      .uuid-9ecfda5d-6b61-47d9-9410-f4ac521bdc49 {
        fill: #f8f8f8;
      }

      .uuid-56f2626c-8654-4e62-b43d-1f5e62b5d7a3 {
        fill: #8d4fea;
      }
    </style>
  </defs>
  <g id="uuid-f612e0f2-42fa-4cb5-8512-28131ae96a68" data-name="Layer_1">
    <circle class="uuid-56f2626c-8654-4e62-b43d-1f5e62b5d7a3" cx="50" cy="50" r="50"/>
    <path class="uuid-9ecfda5d-6b61-47d9-9410-f4ac521bdc49" d="M71.5023,70.6449c.3819-.0543.7491-.1841,1.0804-.3818.3312-.1977.6198-.4593.8488-.7695.2291-.3104.3942-.6631.4857-1.038.0915-.3748.1072-.7638.0469-1.145-.0605-.3809-.1962-.746-.3992-1.074-.203-.328-.4692-.6123-.7832-.8364-.3141-.2239-.6695-.3832-1.0456-.4686-.3761-.0854-.7655-.0951-1.1454-.0284l-29.7756,4.7155,30.4493-41.3897c.4569-.621.6482-1.398.5323-2.1604-.1161-.7621-.5302-1.4471-1.1513-1.9041-.621-.4569-1.3981-.6481-2.1604-.5323-.7623.1163-1.4472.5302-1.904,1.1512l-30.4459,41.3851-4.3582-29.8196c-.1221-.7528-.5356-1.4276-1.1507-1.8787-.6153-.4509-1.3834-.6421-2.1383-.5319-.7547.1099-1.4362.5123-1.8971,1.1202-.4609.6079-.6644,1.3726-.5666,2.1291l5.2739,36.1053c.0697.4758.233.9329.4805,1.345.2476.4121.5746.7712.9617,1.0559.3873.285.8273.4902,1.2944.6038.4671.1137.9522.1335,1.427.0584l36.0408-5.7112Z"/>
  </g>
</svg>