<?xml version="1.0" encoding="UTF-8"?>
<svg id="uuid-93488cbc-fedf-4448-900c-1d0d857f841d" xmlns="http://www.w3.org/2000/svg" version="1.1" viewBox="0 0 100 100">
  <!-- Generator: Adobe Illustrator 29.1.0, SVG Export Plug-In . SVG Version: 2.1.0 Build 142)  -->
  <defs>
    <style>
      .st0 {
        fill: #e7e3da;
      }

      .st1 {
        fill: #0c0f0a;
      }
    </style>
  </defs>
  <circle class="st1" cx="50" cy="50" r="50"/>
  <path class="st0" d="M53.8,20.4c-.3-.3-.6-.5-1-.6s-.7-.2-1.1-.2-.8,0-1.1.2c-.4.1-.7.4-.9.6-.3.3-.5.6-.6,1s-.2.7-.2,1.1,0,.8.2,1.1c.2.4.4.7.7.9l21.5,21.1-51.4.2c-.8,0-1.5.3-2.1.9-.5.5-.8,1.3-.8,2.1s.3,1.5.9,2.1c.5.5,1.3.8,2.1.8l51.4-.2-21.3,21.3c-.5.5-.8,1.3-.8,2s.3,1.5.8,2,1.3.8,2,.9c.8,0,1.5-.3,2-.8l25.9-25.8c.3-.3.6-.7.8-1.2.2-.4.3-.9.3-1.4s0-1-.3-1.4c-.2-.4-.5-.8-.8-1.2l-26.1-25.5h-.1Z"/>
</svg>