<?xml version="1.0" encoding="UTF-8"?>
<svg id="uuid-93488cbc-fedf-4448-900c-1d0d857f841d" xmlns="http://www.w3.org/2000/svg" version="1.1" viewBox="0 0 100 100">
  <!-- Generator: Adobe Illustrator 29.1.0, SVG Export Plug-In . SVG Version: 2.1.0 Build 142)  -->
  <defs>
    <style>
      .st0 {
        fill: #e7e3da;
      }

      .st1 {
        fill: #0c0f0a;
      }
    </style>
  </defs>
  <circle class="st1" cx="50" cy="50" r="50"/>
  <path class="st0" d="M71.5,70.6c.4,0,.7-.2,1.1-.4.3-.2.6-.5.8-.8.2-.3.4-.7.5-1,0-.4,0-.8,0-1.1,0-.4-.2-.7-.4-1.1-.2-.3-.5-.6-.8-.8-.3-.2-.7-.4-1-.5h-1.1l-29.8,4.7,30.4-41.4c.5-.6.6-1.4.5-2.2,0-.8-.5-1.4-1.2-1.9-.6-.5-1.4-.6-2.2-.5-.8.1-1.4.5-1.9,1.2l-30.4,41.4-4.4-29.8c-.1-.8-.5-1.4-1.2-1.9-.6-.5-1.4-.6-2.1-.5-.8,0-1.4.5-1.9,1.1s-.7,1.4-.6,2.1l5.3,36.1c0,.5.2.9.5,1.3.2.4.6.8,1,1.1.4.3.8.5,1.3.6s1,0,1.4,0l36-5.7h.2Z"/>
</svg>