<svg width="25" height="20" viewBox="0 0 25 20" fill="none" xmlns="http://www.w3.org/2000/svg">
<path d="M6.76785 6.92217L3.0739 10.0001L6.76785 13.0781C6.89036 13.1785 6.99178 13.3021 7.06626 13.4419C7.14074 13.5817 7.18682 13.7349 7.20182 13.8925C7.21682 14.0502 7.20046 14.2093 7.15368 14.3606C7.1069 14.512 7.03062 14.6525 6.92925 14.7742C6.82788 14.8959 6.70341 14.9964 6.56303 15.0697C6.42266 15.1431 6.26915 15.1879 6.11135 15.2017C5.95356 15.2154 5.7946 15.1978 5.64366 15.1498C5.49271 15.1018 5.35276 15.0244 5.23187 14.9221L0.431934 10.9221C0.296747 10.8095 0.187979 10.6685 0.113336 10.5092C0.0386923 10.3499 0 10.1761 0 10.0001C0 9.82418 0.0386923 9.65039 0.113336 9.49105C0.187979 9.33172 0.296747 9.19076 0.431934 9.07814L5.23187 5.07819C5.47674 4.87752 5.79099 4.78174 6.10616 4.81173C6.42133 4.84172 6.71188 4.99505 6.91451 5.2383C7.11714 5.48156 7.21542 5.79504 7.18795 6.11044C7.16048 6.42584 7.00948 6.7176 6.76785 6.92217ZM24.3676 9.07814L19.5677 5.07819C19.4468 4.97585 19.3068 4.89845 19.1559 4.85046C19.005 4.80247 18.846 4.78484 18.6882 4.79858C18.5304 4.81233 18.3769 4.85717 18.2365 4.93054C18.0961 5.0039 17.9717 5.10433 17.8703 5.22603C17.7689 5.34773 17.6927 5.4883 17.6459 5.63962C17.5991 5.79095 17.5827 5.95003 17.5977 6.10771C17.6127 6.26539 17.6588 6.41854 17.7333 6.55833C17.8078 6.69811 17.9092 6.82177 18.0317 6.92217L21.7257 10.0001L18.0317 13.0781C17.9092 13.1785 17.8078 13.3021 17.7333 13.4419C17.6588 13.5817 17.6127 13.7349 17.5977 13.8925C17.5827 14.0502 17.5991 14.2093 17.6459 14.3606C17.6927 14.512 17.7689 14.6525 17.8703 14.7742C17.9717 14.8959 18.0961 14.9964 18.2365 15.0697C18.3769 15.1431 18.5304 15.1879 18.6882 15.2017C18.846 15.2154 19.005 15.1978 19.1559 15.1498C19.3068 15.1018 19.4468 15.0244 19.5677 14.9221L24.3676 10.9221C24.5028 10.8095 24.6116 10.6685 24.6862 10.5092C24.7609 10.3499 24.7996 10.1761 24.7996 10.0001C24.7996 9.82418 24.7609 9.65039 24.6862 9.49105C24.6116 9.33172 24.5028 9.19076 24.3676 9.07814ZM16.0097 0.0722576C15.8616 0.0183889 15.7043 -0.00577009 15.5469 0.00116073C15.3894 0.00809155 15.2348 0.0459765 15.092 0.112651C14.9492 0.179326 14.8209 0.273484 14.7145 0.389748C14.608 0.506012 14.5256 0.642103 14.4718 0.790249L8.07184 18.39C7.96335 18.6891 7.97804 19.0189 8.11268 19.3071C8.24731 19.5953 8.49087 19.8183 8.78983 19.927C8.92108 19.9754 9.05991 20.0002 9.19982 20C9.44619 20 9.68661 19.9243 9.88841 19.7829C10.0902 19.6416 10.2436 19.4416 10.3278 19.21L16.7277 1.61024C16.7816 1.46211 16.8058 1.30482 16.7988 1.14736C16.7919 0.989891 16.754 0.835333 16.6873 0.692512C16.6207 0.54969 16.5265 0.421403 16.4102 0.314979C16.294 0.208554 16.1579 0.126076 16.0097 0.0722576Z" fill="#F8F8F8"/>
</svg>
