<svg width="151" height="116" viewBox="0 0 151 116" fill="none" xmlns="http://www.w3.org/2000/svg">
<path d="M75.4825 0C94.5496 0 110.816 9.548 122.963 20.0008C135.186 30.5016 144.012 42.5714 148.344 49.0971C150.053 51.6592 150.965 54.6701 150.965 57.75C150.965 60.8299 150.053 63.8408 148.344 66.4029C144.012 72.9286 135.186 84.9984 122.963 95.4992C110.806 105.952 94.5496 115.5 75.4825 115.5C56.4154 115.5 40.1491 105.952 28.0024 95.4992C15.7786 84.9887 6.95248 72.919 2.62123 66.3932C0.912094 63.8311 0 60.8202 0 57.7404C0 54.6605 0.912094 51.6496 2.62123 49.0875C6.95248 42.5714 15.7786 30.5016 28.0024 20.0008C40.1587 9.548 56.4154 0 75.4825 0ZM14.6429 57.0955C14.5104 57.2881 14.4395 57.5163 14.4395 57.75C14.4395 57.9837 14.5104 58.2119 14.6429 58.4045C18.5987 64.3912 26.5875 75.2482 37.4156 84.5556C48.3015 93.9207 61.3049 101.062 75.4825 101.062C89.6601 101.062 102.673 93.9207 113.549 84.5556C124.368 75.2482 132.357 64.3816 136.322 58.4045C136.455 58.2119 136.525 57.9837 136.525 57.75C136.525 57.5163 136.455 57.2881 136.322 57.0955C132.357 51.1184 124.368 40.2518 113.549 30.9444C102.663 21.5793 89.6601 14.4375 75.4825 14.4375C61.3049 14.4375 48.2919 21.5793 37.4156 30.9444C26.5971 40.2518 18.6084 51.1184 14.6429 57.0955ZM75.4825 77C72.919 77.058 70.3697 76.6032 67.9844 75.6624C65.599 74.7216 63.4257 73.3137 61.5919 71.5214C59.7582 69.7291 58.301 67.5885 57.3059 65.2253C56.3108 62.8621 55.7979 60.3239 55.7973 57.7597C55.7966 55.1956 56.3083 52.6571 57.3022 50.2934C58.2961 47.9297 59.7522 45.7884 61.5851 43.9952C63.4179 42.2019 65.5905 40.793 67.9754 39.851C70.3603 38.909 72.9093 38.4529 75.4729 38.5096C80.5025 38.6208 85.2888 40.6967 88.807 44.2927C92.3253 47.8887 94.296 52.7192 94.2973 57.7501C94.2985 62.781 92.3303 67.6125 88.8138 71.2103C85.2973 74.8081 80.5121 76.8863 75.4825 77Z" fill="#F8F8F8"/>
</svg>
