<?xml version="1.0" encoding="UTF-8"?>
<svg id="Layer_1" xmlns="http://www.w3.org/2000/svg" version="1.1" viewBox="0 0 20 20">
  <!-- Generator: Adobe Illustrator 29.3.0, SVG Export Plug-In . SVG Version: 2.1.0 Build 146)  -->
  <defs>
    <style>
      .st0 {
        fill: #e7e3da;
      }
    </style>
  </defs>
  <g id="Layer_11" data-name="Layer_1">
    <path class="st0" d="M18.9,0H1.1c-.3,0-.6.1-.8.3-.2.2-.3.5-.3.8v17.8c0,.3.1.6.3.8.2.2.5.3.8.3h9.6v-7.8h-2.6v-3h2.6v-2.2c0-.5,0-1.1.2-1.6s.5-1,.8-1.3c.4-.4.8-.7,1.3-.9s1-.3,1.6-.2c.8,0,1.6,0,2.3,0v2.7h-1.6c-1.3,0-1.5.6-1.5,1.5v1.9h3l-.4,3h-2.6v7.8h5.5c.1,0,.3-.1.4-.2s.2-.2.2-.4V.7c0-.1-.1-.3-.2-.4s-.2-.2-.4-.2h-.4Z"/>
  </g>
</svg>