<?xml version="1.0" encoding="UTF-8"?>
<svg xmlns="http://www.w3.org/2000/svg" version="1.1" viewBox="0 0 20 20">
  <defs>
    <style>
      .cls-1 {
        fill: #0a141f;
      }
    </style>
  </defs>
  <!-- Generator: Adobe Illustrator 28.7.1, SVG Export Plug-In . SVG Version: 1.2.0 Build 142)  -->
  <g>
    <g id="Layer_1">
      <path class="cls-1" d="M18.9,0H1.1c-.3,0-.6.1-.8.3-.2.2-.3.5-.3.8v17.8c0,.3.1.6.3.8.2.2.5.3.8.3h9.6v-7.8h-2.6v-3h2.6v-2.2c0-.5,0-1.1.2-1.6.2-.5.5-1,.8-1.3.4-.4.8-.7,1.3-.9.5-.2,1-.3,1.6-.2.8,0,1.6,0,2.3.1v2.7h-1.6c-1.3,0-1.5.6-1.5,1.5v1.9h3l-.4,3h-2.6v7.8h5.1c.1,0,.3,0,.4,0,.1,0,.3-.1.4-.2.1-.1.2-.2.2-.4,0-.1,0-.3,0-.4V1.1c0-.1,0-.3,0-.4,0-.1-.1-.3-.2-.4-.1-.1-.2-.2-.4-.2-.1,0-.3,0-.4,0Z"/>
    </g>
  </g>
</svg>