<?xml version="1.0" encoding="UTF-8"?>
<svg xmlns="http://www.w3.org/2000/svg" version="1.1" viewBox="0 0 20 20">
  <defs>
    <style>
      .cls-1 {
        fill: #0a141f;
      }
    </style>
  </defs>
  <!-- Generator: Adobe Illustrator 28.7.1, SVG Export Plug-In . SVG Version: 1.2.0 Build 142)  -->
  <g>
    <g id="Layer_1">
      <path class="cls-1" d="M18.4,0H1.5c-.2,0-.4,0-.6.1-.2,0-.3.2-.5.3-.1.1-.2.3-.3.5,0,.2-.1.4-.1.6v17.1c0,.2,0,.4.1.6,0,.2.2.3.3.5.1.1.3.2.5.3.2,0,.4.1.6.1h16.9c.2,0,.4,0,.6-.1.2,0,.3-.2.5-.3.1-.1.2-.3.3-.5,0-.2.1-.4.1-.6V1.4c0-.2,0-.4-.1-.6,0-.2-.2-.3-.3-.5-.1-.1-.3-.2-.5-.3-.2,0-.4-.1-.6-.1ZM6,16.7h-3V7.7h3v9ZM4.5,6.5c-.4,0-.8-.2-1.1-.5-.3-.3-.5-.7-.5-1.1s.2-.8.5-1.1c.3-.3.7-.5,1.1-.5.2,0,.4,0,.7,0,.2,0,.4.2.6.3.2.1.3.3.4.5,0,.2.1.4.1.6s0,.4-.1.6c0,.2-.2.4-.4.5-.2.1-.4.3-.6.3-.2,0-.4,0-.7,0ZM16.9,16.7h-3v-4.8c0-1.2-.4-2-1.5-2-.3,0-.7.1-.9.3-.3.2-.5.5-.6.8,0,.2-.1.5-.1.7v5h-3V7.7h3v1.3c.3-.5.7-.9,1.1-1.1.5-.3,1-.4,1.6-.4,2,0,3.5,1.3,3.5,4.1v5.2Z"/>
    </g>
  </g>
</svg>