<?xml version="1.0" encoding="UTF-8"?>
<svg id="uuid-7aadeaef-bbf6-4b99-9af4-5654b1662955" data-name="Layer 2" xmlns="http://www.w3.org/2000/svg" width="226" height="137" viewBox="0 0 225.9954 136.742">
  <defs>
    <style>
      .uuid-198f90db-da56-456f-880c-9e401aa1fb62 {
        fill: #fff;
        stroke-width: 0px;
      }
    </style>
  </defs>
  <g id="uuid-8ea56dec-51d4-411c-8ae9-71fd3c87655a" data-name="Layer 1">
    <path  class="uuid-198f90db-da56-456f-880c-9e401aa1fb62" d="M221.8574,10.1415c1.6633-2.6566,3.5947-7.3551,4.138-10.1415-.0269.0236-.0478.0461-.0758.0685-.0665.0342-.15.1151-.2296.185.0225-.0114.0445-.0231.0676-.0346-13.9422,13.6419-28.0508,24.9614-42.0018,34.5585-8.9291,6.1412-24.5385,16.1617-33.2787,21.0515-9.434,5.3141-17.2419,10.6228-22.4797,19.5075-2.0561,3.5046-2.2967,7.3345-4.1699,10.8305-1.5386,2.73-3.6074,3.9238-4.7516,4.9109-2.1808,1.8585-4.8312,12.4902-6.0782,19.1869-1.2469-6.6967-3.8974-17.3285-6.0782-19.1869-1.1442-.9871-3.213-2.1809-4.7516-4.9109-1.8732-3.496-2.1138-7.3258-4.1699-10.8305-5.2377-8.8846-13.0457-14.1934-22.4797-19.5075-8.7402-4.8897-24.3496-14.9102-33.2787-21.0515C28.2887,25.1803,14.1801,13.8608.2379.2189c.0231.0115.045.0232.0676.0346C.2258.1836.1423.1027.0758.0685c-.028-.0224-.0489-.0449-.0758-.0685.5433,2.7864,2.4747,7.4848,4.138,10.1415,5.1658,8.9574,17.6408,17.0942,22.6373,20.5042-5.9991-3.4349-11.9778-7.1653-17.916-11.2202.5246,2.4156,1.754,4.2194,3.1932,6.3971,5.1295,7.5664,13.1484,12.2081,19.648,16.1263-4.2358-1.8993-8.8061-4.547-12.9974-6.6487,4.0012,10.7979,14.4514,15.2607,22.5923,18.9513-2.1753-.735-8.4782-3.0291-10.6474-3.896-.7048-.2718.7817,2.173.9289,2.405,4.9971,8.5178,14.6541,10.945,21.8776,13.7333-2.9877-.5827-8.1216-2.1786-11.0951-2.8467,4.6439,6.6167,12.509,10.8084,20.4357,13.469-3.0136-.4948-8.9176-2.0668-8.9176-2.0668,2.2061,2.3456,4.99,5.1575,7.7228,7.1654,2.2313,1.64,4.6055,3.1613,7.1367,4.4828,2.3796,1.2426,4.901,2.3027,7.5311,3.1028,3.3799,1.0272,6.9461,1.5632,10.4683,1.5969,1.7611.0169,3.5118-.092,5.224-.3282.8553-.118,1.7012-.2679,2.5334-.4498.2461-.0538.8372-.1115,1.0871-.2469.5543.6917,1.1755,3.7143,2.0132,4.7552-.0269.035-.0599.0645-.0989.0873-2.011,1.3273-4.0666,2.5808-5.7997,3.972-.2098.1754-.3845.3794-.5306.6085-1.0426,1.7367-.111,3.4099.9525,5.1303.741-.444,1.4859-.888,2.2308-1.3328-1.1387,1.5576-1.8858,1.9026-2.1429,4.2495-.0066.1721-.0022.3459.0242.5197,0,.0695.0099.1332.0093.203.0813.8598.3801,1.7029.8707,2.4442.267.5172.6075.997.9987,1.4279.045.0571.089.1143.1329.1715.3104-.4396,1.4639-1.7258,1.7869-2.1643-.0269.0824-.0654.166-.0884.2565-.4614,1.3858-1.4084,3.6642-1.0042,5.0595.3983,1.2377,1.0915,2.3726,2.0089,3.2966.5295-1.0253,1.0602-2.0495,1.5974-3.0726-.4669,1.4415-.6042,2.9859-.4131,4.5214.2499,1.735,1.0739,3.3541,2.3307,4.5737.5729-1.4583,1.1519-2.9151,1.7364-4.3706-.9371,3.8452-.8844,8.5228,2.1797,11.4855.6207-2.3169,1.2535-4.6123,1.894-6.8877-.2681,3.2849-.3977,5.6052-.3873,6.7105.0121.8054.1791,2.3709,2.3203,3.6145,1.3079.542,2.6658.9154,4.0556,1.1104-.0016,0,.7026-7.8057.7147-7.766v.3929c.006-.0775.0192-.1285.0242-.1832,0,.0005.0005.0015.0005.0021,0-.0005.0005-.0015.0005-.0021.0049.0547.0181.1057.0242.1832v-.3929c.0121-.0397.7163,7.766.7147,7.766,1.3898-.195,2.7477-.5684,4.0556-1.1104,2.1412-1.2437,2.3082-2.8091,2.3203-3.6145.0104-1.1052-.1192-3.4255-.3873-6.7105.6405,2.2754,1.2733,4.5709,1.894,6.8877,3.0641-2.9627,3.1168-7.6403,2.1797-11.4855.5845,1.4556,1.1635,2.9123,1.7364,4.3706,1.2568-1.2196,2.0808-2.8387,2.3307-4.5737.1912-1.5355.0538-3.0799-.4131-4.5214.5372,1.0231,1.0679,2.0473,1.5974,3.0726.9174-.924,1.6106-2.0588,2.0089-3.2966.4043-1.3953-.5427-3.6737-1.0042-5.0595-.0231-.0905-.0615-.1741-.0884-.2565.323.4385,1.4766,1.7247,1.7869,2.1643.0439-.0573.0879-.1144.1329-.1715.3911-.4309.7317-.9108.9987-1.4279.4905-.7413.7894-1.5844.8707-2.4442-.0005-.0698.0093-.1335.0093-.203.0264-.1737.0308-.3476.0242-.5197-.2571-2.347-1.0042-2.6919-2.1429-4.2495.7449.4448,1.4897.8888,2.2308,1.3328,1.0635-1.7205,1.9951-3.3937.9525-5.1303-.1461-.2291-.3208-.4331-.5306-.6085-1.7331-1.3911-3.7886-2.6447-5.7997-3.972-.039-.0228-.072-.0523-.0989-.0873.8377-1.0408,1.459-4.0634,2.0132-4.7552.2499.1354.841.1931,1.0871.2469.8322.1818,1.6782.3318,2.5334.4498,1.7122.2362,3.4629.3451,5.224.3282,3.5222-.0336,7.0884-.5696,10.4683-1.5969,2.6301-.8001,5.1515-1.8603,7.5311-3.1028,2.5313-1.3215,4.9054-2.8429,7.1367-4.4828,2.7328-2.0079,5.5168-4.8198,7.7228-7.1654,0,0-5.9041,1.572-8.9176,2.0668,7.9266-2.6606,15.7918-6.8523,20.4357-13.469-2.9735.6681-8.1074,2.264-11.0951,2.8467,7.2235-2.7883,16.8805-5.2155,21.8776-13.7333.1472-.2321,1.6337-2.6768.9289-2.405-2.1693.867-8.4721,3.161-10.6474,3.896,8.1409-3.6906,18.5911-8.1534,22.5923-18.9513-4.1913,2.1017-8.7616,4.7494-12.9974,6.6487,6.4995-3.9181,14.5184-8.5599,19.648-16.1263,1.4392-2.1776,2.6686-3.9814,3.1932-6.3971-5.9381,4.0549-11.9169,7.7853-17.916,11.2202,4.9966-3.41,17.4716-11.5468,22.6373-20.5042Z"/>
  </g>
</svg>