<?xml version="1.0" encoding="UTF-8"?>
<svg id="uuid-7aadeaef-bbf6-4b99-9af4-5654b1662955" xmlns="http://www.w3.org/2000/svg" version="1.1" viewBox="0 0 226 137">
  <!-- Generator: Adobe Illustrator 29.1.0, SVG Export Plug-In . SVG Version: 2.1.0 Build 142)  -->
  <defs>
    <style>
      .st0 {
        fill: #e7e3da;
      }
    </style>
  </defs>
  <g id="uuid-8ea56dec-51d4-411c-8ae9-71fd3c87655a">
    <path class="st0" d="M221.9,10.3c1.7-2.7,3.6-7.4,4.1-10.1,0,0,0,0,0,0,0,0-.1.1-.2.2,0,0,0,0,0,0-13.9,13.6-28.1,25-42,34.6-8.9,6.1-24.5,16.2-33.3,21.1-9.4,5.3-17.2,10.6-22.5,19.5-2.1,3.5-2.3,7.3-4.2,10.8-1.5,2.7-3.6,3.9-4.8,4.9-2.2,1.9-4.8,12.5-6.1,19.2-1.2-6.7-3.9-17.3-6.1-19.2-1.1-1-3.2-2.2-4.8-4.9-1.9-3.5-2.1-7.3-4.2-10.8-5.2-8.9-13-14.2-22.5-19.5-8.7-4.9-24.4-14.9-33.3-21.1C28.3,25.3,14.2,14,.2.3c0,0,0,0,0,0,0,0-.2-.2-.2-.2C0,.2,0,.2,0,.1c.5,2.8,2.5,7.5,4.1,10.1,5.2,9,17.6,17.1,22.6,20.5-6-3.4-12-7.2-17.9-11.2.5,2.4,1.8,4.2,3.2,6.4,5.1,7.6,13.1,12.2,19.6,16.1-4.2-1.9-8.8-4.5-13-6.6,4,10.8,14.5,15.3,22.6,19-2.2-.7-8.5-3-10.6-3.9-.7-.3.8,2.2.9,2.4,5,8.5,14.7,10.9,21.9,13.7-3-.6-8.1-2.2-11.1-2.8,4.6,6.6,12.5,10.8,20.4,13.5-3-.5-8.9-2.1-8.9-2.1,2.2,2.3,5,5.2,7.7,7.2,2.2,1.6,4.6,3.2,7.1,4.5,2.4,1.2,4.9,2.3,7.5,3.1,3.4,1,6.9,1.6,10.5,1.6,1.8,0,3.5,0,5.2-.3.9-.1,1.7-.3,2.5-.4.2,0,.8-.1,1.1-.2.6.7,1.2,3.7,2,4.8,0,0,0,0,0,0-2,1.3-4.1,2.6-5.8,4-.2.2-.4.4-.5.6-1,1.7-.1,3.4,1,5.1.7-.4,1.5-.9,2.2-1.3-1.1,1.6-1.9,1.9-2.1,4.2,0,.2,0,.3,0,.5,0,0,0,.1,0,.2,0,.9.4,1.7.9,2.4.3.5.6,1,1,1.4,0,0,0,.1.1.2.3-.4,1.5-1.7,1.8-2.2,0,0,0,.2,0,.3-.5,1.4-1.4,3.7-1,5.1.4,1.2,1.1,2.4,2,3.3.5-1,1.1-2,1.6-3.1-.5,1.4-.6,3-.4,4.5.2,1.7,1.1,3.4,2.3,4.6.6-1.5,1.2-2.9,1.7-4.4-.9,3.8-.9,8.5,2.2,11.5.6-2.3,1.3-4.6,1.9-6.9-.3,3.3-.4,5.6-.4,6.7,0,.8.2,2.4,2.3,3.6,1.3.5,2.7.9,4.1,1.1,0,0,.7-7.8.7-7.8v.4c0,0,0-.1,0-.2,0,0,0,0,0,0,0,0,0,0,0,0,0,0,0,.1,0,.2v-.4s.7,7.8.7,7.8c1.4-.2,2.7-.6,4.1-1.1,2.1-1.2,2.3-2.8,2.3-3.6,0-1.1-.1-3.4-.4-6.7.6,2.3,1.3,4.6,1.9,6.9,3.1-3,3.1-7.6,2.2-11.5.6,1.5,1.2,2.9,1.7,4.4,1.3-1.2,2.1-2.8,2.3-4.6.2-1.5,0-3.1-.4-4.5.5,1,1.1,2,1.6,3.1.9-.9,1.6-2.1,2-3.3.4-1.4-.5-3.7-1-5.1,0,0,0-.2,0-.3.3.4,1.5,1.7,1.8,2.2,0,0,0-.1.1-.2.4-.4.7-.9,1-1.4.5-.7.8-1.6.9-2.4,0,0,0-.1,0-.2,0-.2,0-.3,0-.5-.3-2.3-1-2.7-2.1-4.2.7.4,1.5.9,2.2,1.3,1.1-1.7,2-3.4,1-5.1-.1-.2-.3-.4-.5-.6-1.7-1.4-3.8-2.6-5.8-4,0,0,0,0,0,0,.8-1,1.5-4.1,2-4.8.2.1.8.2,1.1.2.8.2,1.7.3,2.5.4,1.7.2,3.5.3,5.2.3,3.5,0,7.1-.6,10.5-1.6,2.6-.8,5.2-1.9,7.5-3.1,2.5-1.3,4.9-2.8,7.1-4.5,2.7-2,5.5-4.8,7.7-7.2,0,0-5.9,1.6-8.9,2.1,7.9-2.7,15.8-6.9,20.4-13.5-3,.7-8.1,2.3-11.1,2.8,7.2-2.8,16.9-5.2,21.9-13.7.1-.2,1.6-2.7.9-2.4-2.2.9-8.5,3.2-10.6,3.9,8.1-3.7,18.6-8.2,22.6-19-4.2,2.1-8.8,4.7-13,6.6,6.5-3.9,14.5-8.6,19.6-16.1,1.4-2.2,2.7-4,3.2-6.4-5.9,4.1-11.9,7.8-17.9,11.2,5-3.4,17.5-11.5,22.6-20.5h0Z"/>
  </g>
</svg>