<?xml version="1.0" encoding="UTF-8"?>
<svg id="Layer_1" xmlns="http://www.w3.org/2000/svg" version="1.1" viewBox="0 0 94 134">
  <!-- Generator: Adobe Illustrator 29.0.0, SVG Export Plug-In . SVG Version: 2.1.0 Build 186)  -->
  <defs>
    <style>
      .st0 {
        fill: #f7f5fb;
      }
    </style>
  </defs>
  <g id="Layer_11" data-name="Layer_1">
    <path class="st0" d="M47,134c-13,0-24.1-4.6-33.2-13.7C4.6,111.1,0,100.1,0,87.1v-40.2c0-13,4.6-24,13.8-33.2C22.9,4.6,34,0,47,0s24.1,4.6,33.2,13.7c9.2,9.2,13.8,20.2,13.8,33.2v40.2c0,13-4.6,24-13.8,33.2s-20.3,13.7-33.2,13.7ZM53.7,46.9h26.9c0-8-2.5-15.1-7.6-21.3-5.1-6.1-11.5-10-19.2-11.6v32.8h0ZM13.4,46.9h26.9V14.1c-7.7,1.6-14.1,5.4-19.2,11.6-5.1,6.1-7.6,13.2-7.6,21.3h0ZM47,120.6c9.3,0,17.2-3.3,23.8-9.8,6.5-6.5,9.8-14.4,9.8-23.7v-26.8H13.4v26.8c0,9.3,3.3,17.2,9.8,23.7,6.5,6.5,14.5,9.8,23.7,9.8h0Z"/>
  </g>
</svg>