<?xml version="1.0" encoding="UTF-8"?>
<svg id="Layer_1" xmlns="http://www.w3.org/2000/svg" version="1.1" viewBox="0 0 102 114">
  <!-- Generator: Adobe Illustrator 29.0.0, SVG Export Plug-In . SVG Version: 2.1.0 Build 186)  -->
  <defs>
    <style>
      .st0 {
        fill: #0a141f;
      }
    </style>
  </defs>
  <path class="st0" d="M85,113.3c-4.7,0-8.7-1.7-12-5-3.3-3.3-5-7.3-5-12s.1-1.9.4-4l-39.8-23.2c-1.5,1.4-3.3,2.5-5.2,3.3-2,.8-4.1,1.2-6.4,1.2-4.7,0-8.7-1.7-12-5-3.3-3.3-5-7.3-5-12s1.7-8.7,5-12c3.3-3.3,7.3-5,12-5s4.4.4,6.4,1.2c2,.8,3.7,1.9,5.2,3.3l39.8-23.2c-.2-.7-.3-1.3-.4-1.9,0-.6,0-1.3,0-2.1,0-4.7,1.7-8.7,5-12,3.3-3.3,7.3-5,12-5s8.7,1.7,12,5c3.3,3.3,5,7.3,5,12s-1.7,8.7-5,12c-3.3,3.3-7.3,5-12,5s-4.4-.4-6.4-1.2-3.7-1.9-5.2-3.3l-39.8,23.2c.2.7.3,1.3.4,1.9,0,.6,0,1.3,0,2.1,0,.8,0,1.4,0,2.1,0,.6-.2,1.3-.4,1.9l39.8,23.2c1.5-1.4,3.3-2.5,5.2-3.3,2-.8,4.1-1.2,6.4-1.2,4.7,0,8.7,1.7,12,5,3.3,3.3,5,7.3,5,12s-1.7,8.7-5,12c-3.3,3.3-7.3,5-12,5Z"/>
</svg>