<svg width="102" height="114" viewBox="0 0 102 114" fill="none" xmlns="http://www.w3.org/2000/svg">
<path d="M85 113.333C80.2778 113.333 76.2639 111.681 72.9583 108.375C69.6528 105.069 68 101.056 68 96.3333C68 95.7667 68.1417 94.4444 68.425 92.3667L28.6167 69.1333C27.1056 70.55 25.3583 71.6607 23.375 72.4653C21.3917 73.27 19.2667 73.6704 17 73.6667C12.2778 73.6667 8.26389 72.0139 4.95833 68.7083C1.65278 65.4028 0 61.3889 0 56.6667C0 51.9444 1.65278 47.9306 4.95833 44.625C8.26389 41.3194 12.2778 39.6667 17 39.6667C19.2667 39.6667 21.3917 40.069 23.375 40.8737C25.3583 41.6783 27.1056 42.7871 28.6167 44.2L68.425 20.9667C68.2361 20.3056 68.119 19.669 68.0737 19.057C68.0283 18.445 68.0038 17.7593 68 17C68 12.2778 69.6528 8.26389 72.9583 4.95833C76.2639 1.65278 80.2778 0 85 0C89.7222 0 93.7361 1.65278 97.0417 4.95833C100.347 8.26389 102 12.2778 102 17C102 21.7222 100.347 25.7361 97.0417 29.0417C93.7361 32.3472 89.7222 34 85 34C82.7333 34 80.6083 33.5977 78.625 32.793C76.6417 31.9883 74.8944 30.8796 73.3833 29.4667L33.575 52.7C33.7639 53.3611 33.8829 53.9996 33.932 54.6153C33.9811 55.2311 34.0038 55.9149 34 56.6667C33.9962 57.4184 33.9736 58.1041 33.932 58.7237C33.8904 59.3432 33.7714 59.9798 33.575 60.6333L73.3833 83.8667C74.8944 82.45 76.6417 81.3412 78.625 80.5403C80.6083 79.7394 82.7333 79.3371 85 79.3333C89.7222 79.3333 93.7361 80.9861 97.0417 84.2917C100.347 87.5972 102 91.6111 102 96.3333C102 101.056 100.347 105.069 97.0417 108.375C93.7361 111.681 89.7222 113.333 85 113.333Z" fill="#F8F8F8"/>
</svg>
