<?xml version="1.0" encoding="UTF-8"?>
<svg id="Layer_2" data-name="Layer 2" xmlns="http://www.w3.org/2000/svg" viewBox="0 0 100 100">
  <defs>
    <style>
      .cls-1 {
        fill: #e7e3da;
      }

      .cls-2 {
        fill: #0c0f0a;
      }
    </style>
  </defs>
  <g id="uuid-93488cbc-fedf-4448-900c-1d0d857f841d">
    <circle class="cls-2" cx="50" cy="50" r="50"/>
    <path class="cls-1" d="M28.7,70.6l36,5.7c.4,0,.9.1,1.4,0s.9-.3,1.3-.6c.4-.3.8-.7,1-1.1.3-.4.5-.8.5-1.3l5.3-36.1c.1-.7-.1-1.5-.6-2.1s-1.1-1.1-1.9-1.1c-.7-.1-1.5,0-2.1.5-.7.5-1.1,1.1-1.2,1.9l-4.4,29.8-30.4-41.4c-.5-.7-1.1-1.1-1.9-1.2-.8-.1-1.6,0-2.2.5-.7.5-1.2,1.1-1.2,1.9-.1.8,0,1.6.5,2.2l30.4,41.4-29.8-4.7h-1.1c-.3.1-.7.3-1,.5-.3.2-.6.5-.8.8-.2.4-.4.7-.4,1.1v1.1c.1.3.3.7.5,1,.2.3.5.6.8.8.4.2.7.4,1.1.4,0,0,.2,0,.2,0Z"/>
  </g>
</svg>