<svg width="14" height="20" viewBox="0 0 14 20" fill="none" xmlns="http://www.w3.org/2000/svg">
<path d="M7 4.00001C6.45 4.00001 5.97933 3.80434 5.588 3.41301C5.19667 3.02167 5.00067 2.55067 5 2.00001C4.99933 1.44934 5.19533 0.978673 5.588 0.588007C5.98067 0.19734 6.45133 0.00134009 7 6.75675e-06C7.54867 -0.00132658 8.01967 0.194673 8.413 0.588007C8.80633 0.98134 9.002 1.45201 9 2.00001C8.998 2.54801 8.80233 3.01901 8.413 3.41301C8.02367 3.80701 7.55267 4.00267 7 4.00001ZM12 20V15H7C6.45 15 5.97933 14.8043 5.588 14.413C5.19667 14.0217 5.00067 13.5507 5 13V7.00001C5 6.45001 5.196 5.97934 5.588 5.58801C5.98 5.19667 6.45067 5.00067 7 5.00001C7.4 5.00001 7.746 5.08767 8.038 5.26301C8.33 5.43834 8.64233 5.71734 8.975 6.10001C9.89167 7.20001 10.721 7.95434 11.463 8.36301C12.205 8.77167 13.0507 8.98401 14 9.00001V11C13.1167 11 12.225 10.8083 11.325 10.425C10.425 10.0417 9.65 9.58334 9 9.05001V12.5H12C12.55 12.5 13.021 12.696 13.413 13.088C13.805 13.48 14.0007 13.9507 14 14.5V20H12ZM5 20C3.61667 20 2.43767 19.5123 1.463 18.537C0.488333 17.5617 0.000666667 16.3827 0 15C0 13.8 0.379333 12.7417 1.138 11.825C1.89667 10.9083 2.85067 10.3333 4 10.1V12.15C3.41667 12.3833 2.93767 12.7543 2.563 13.263C2.18833 13.7717 2.00067 14.3507 2 15C2 15.8333 2.29167 16.5417 2.875 17.125C3.45833 17.7083 4.16667 18 5 18C5.65 18 6.22933 17.8127 6.738 17.438C7.24667 17.0633 7.61733 16.584 7.85 16H9.9C9.66667 17.15 9.09167 18.1043 8.175 18.863C7.25833 19.6217 6.2 20.0007 5 20Z" fill="#F8F8F8"/>
</svg>
